<?xml version="1.0" encoding="UTF-8"?>
<svg width="132px" height="14px" viewBox="0 0 132 14" version="1.1" xmlns="http://www.w3.org/2000/svg" xmlns:xlink="http://www.w3.org/1999/xlink">
    <!-- Generator: Sketch 41.2 (35397) - http://www.bohemiancoding.com/sketch -->
    <title>serviços+contato</title>
    <desc>Created with Sketch.</desc>
    <defs></defs>
    <g id="Page-1" stroke="none" stroke-width="1" fill="none" fill-rule="evenodd">
        <g id="Index" transform="translate(-113.000000, -341.000000)" fill="#000000">
            <path d="M118.263672,350.038086 C118.263672,349.696287 118.13493,349.430828 117.877441,349.241699 C117.619953,349.052571 117.171064,348.889649 116.530762,348.75293 C115.890459,348.61621 115.382326,348.452149 115.006348,348.260742 C114.630369,348.069335 114.352377,347.841473 114.172363,347.577148 C113.992349,347.312824 113.902344,346.998374 113.902344,346.633789 C113.902344,346.027666 114.158689,345.514976 114.671387,345.095703 C115.184085,344.67643 115.839189,344.466797 116.636719,344.466797 C117.475265,344.466797 118.155434,344.683266 118.677246,345.116211 C119.199059,345.549156 119.459961,346.102861 119.459961,346.777344 L118.188477,346.777344 C118.188477,346.430988 118.041505,346.132488 117.747559,345.881836 C117.453612,345.631184 117.083336,345.505859 116.636719,345.505859 C116.17643,345.505859 115.816408,345.606119 115.556641,345.806641 C115.296874,346.007162 115.166992,346.269204 115.166992,346.592773 C115.166992,346.898114 115.287759,347.128254 115.529297,347.283203 C115.770835,347.438152 116.207191,347.586262 116.838379,347.727539 C117.469567,347.868816 117.981118,348.037434 118.373047,348.233398 C118.764976,348.429363 119.0555,348.6652 119.244629,348.940918 C119.433757,349.216635 119.52832,349.552732 119.52832,349.949219 C119.52832,350.610029 119.264,351.139809 118.735352,351.538574 C118.206703,351.937339 117.520838,352.136719 116.677734,352.136719 C116.085283,352.136719 115.5612,352.031902 115.105469,351.822266 C114.649737,351.612629 114.293133,351.319826 114.035645,350.943848 C113.778156,350.567869 113.649414,350.161135 113.649414,349.723633 L114.914062,349.723633 C114.936849,350.147463 115.106606,350.48356 115.42334,350.731934 C115.740073,350.980307 116.158201,351.104492 116.677734,351.104492 C117.156252,351.104492 117.5402,351.007651 117.82959,350.813965 C118.118979,350.620279 118.263672,350.361655 118.263672,350.038086 Z M125.87845,352.136719 C124.875841,352.136719 124.060094,351.807458 123.431185,351.148926 C122.802275,350.490394 122.487825,349.609706 122.487825,348.506836 L122.487825,348.274414 C122.487825,347.540686 122.627961,346.885582 122.908236,346.309082 C123.18851,345.732582 123.580434,345.281414 124.084017,344.955566 C124.5876,344.629718 125.13333,344.466797 125.721224,344.466797 C126.682817,344.466797 127.430206,344.783525 127.963411,345.416992 C128.496617,346.050459 128.763216,346.957351 128.763216,348.137695 L128.763216,348.664062 L123.752474,348.664062 C123.770703,349.393233 123.983754,349.982257 124.391634,350.431152 C124.799514,350.880048 125.3179,351.104492 125.94681,351.104492 C126.393427,351.104492 126.771678,351.013347 127.081575,350.831055 C127.391473,350.648762 127.662629,350.407228 127.895052,350.106445 L128.667513,350.708008 C128.047718,351.660487 127.11804,352.136719 125.87845,352.136719 Z M125.721224,345.505859 C125.210805,345.505859 124.782423,345.691567 124.436068,346.062988 C124.089712,346.434409 123.875521,346.955075 123.793489,347.625 L127.498568,347.625 L127.498568,347.529297 C127.462109,346.886716 127.288934,346.388836 126.979036,346.035645 C126.669139,345.682453 126.249872,345.505859 125.721224,345.505859 Z M135.434635,345.738281 C135.243228,345.70638 135.035873,345.69043 134.812565,345.69043 C133.983134,345.69043 133.420314,346.043616 133.124088,346.75 L133.124088,352 L131.85944,352 L131.85944,344.603516 L133.089909,344.603516 L133.110416,345.458008 C133.525132,344.797197 134.113017,344.466797 134.874088,344.466797 C135.120183,344.466797 135.30703,344.498698 135.434635,344.5625 L135.434635,345.738281 Z M140.793554,350.28418 L142.625586,344.603516 L143.917578,344.603516 L141.265234,352 L140.301367,352 L137.621679,344.603516 L138.913671,344.603516 L140.793554,350.28418 Z M148.141731,352 L146.877083,352 L146.877083,344.603516 L148.141731,344.603516 L148.141731,352 Z M146.774544,342.641602 C146.774544,342.436522 146.837206,342.263347 146.962532,342.12207 C147.087858,341.980794 147.273566,341.910156 147.519661,341.910156 C147.765756,341.910156 147.952603,341.980794 148.080208,342.12207 C148.207813,342.263347 148.271614,342.436522 148.271614,342.641602 C148.271614,342.846681 148.207813,343.017577 148.080208,343.154297 C147.952603,343.291016 147.765756,343.359375 147.519661,343.359375 C147.273566,343.359375 147.087858,343.291016 146.962532,343.154297 C146.837206,343.017577 146.774544,342.846681 146.774544,342.641602 Z M154.765299,351.104492 C155.216473,351.104492 155.610675,350.967775 155.947916,350.694336 C156.285157,350.420897 156.472004,350.079104 156.508463,349.668945 L157.704752,349.668945 C157.681965,350.092776 157.536134,350.496092 157.267252,350.878906 C156.99837,351.261721 156.639487,351.567056 156.190592,351.794922 C155.741696,352.022788 155.266603,352.136719 154.765299,352.136719 C153.758132,352.136719 152.957196,351.800622 152.362467,351.128418 C151.767737,350.456214 151.470377,349.53679 151.470377,348.370117 L151.470377,348.158203 C151.470377,347.438147 151.602537,346.797854 151.866861,346.237305 C152.131186,345.676755 152.510576,345.241538 153.005045,344.931641 C153.499514,344.621743 154.08398,344.466797 154.758463,344.466797 C155.587894,344.466797 156.277178,344.715167 156.826334,345.211914 C157.37549,345.708661 157.668293,346.353512 157.704752,347.146484 L156.508463,347.146484 C156.472004,346.667966 156.290854,346.274904 155.965006,345.967285 C155.639158,345.659666 155.236981,345.505859 154.758463,345.505859 C154.115882,345.505859 153.618002,345.73714 153.264811,346.199707 C152.911619,346.662274 152.735025,347.33105 152.735025,348.206055 L152.735025,348.445312 C152.735025,349.29753 152.910479,349.953774 153.261393,350.414062 C153.612306,350.874351 154.113603,351.104492 154.765299,351.104492 Z M154.970377,352.061523 L154.888346,352.416992 C155.585615,352.54004 155.934244,352.934241 155.934244,353.599609 C155.934244,354.041669 155.751954,354.391438 155.387369,354.648926 C155.022784,354.906414 154.514651,355.035156 153.862955,355.035156 L153.815104,354.303711 C154.175131,354.303711 154.454263,354.244467 154.652506,354.125977 C154.850749,354.007486 154.949869,353.841147 154.949869,353.626953 C154.949869,353.426431 154.876953,353.278321 154.731119,353.182617 C154.585285,353.086914 154.289064,353.018555 153.842447,352.977539 L154.061197,352.061523 L154.970377,352.061523 Z M160.424999,348.233398 C160.424999,347.508785 160.567413,346.857099 160.852245,346.27832 C161.137077,345.699541 161.533558,345.252931 162.041698,344.938477 C162.549839,344.624022 163.129749,344.466797 163.781445,344.466797 C164.788611,344.466797 165.603219,344.815426 166.225292,345.512695 C166.847366,346.209964 167.158398,347.137364 167.158398,348.294922 L167.158398,348.383789 C167.158398,349.103845 167.020541,349.749834 166.744823,350.321777 C166.469106,350.89372 166.074904,351.339191 165.562206,351.658203 C165.049508,351.977215 164.460484,352.136719 163.795116,352.136719 C162.792507,352.136719 161.980178,351.788089 161.358105,351.09082 C160.736031,350.393551 160.424999,349.470709 160.424999,348.322266 L160.424999,348.233398 Z M161.696484,348.383789 C161.696484,349.204106 161.886749,349.862628 162.267284,350.359375 C162.64782,350.856122 163.157092,351.104492 163.795116,351.104492 C164.437698,351.104492 164.948109,350.852704 165.326366,350.349121 C165.704624,349.845538 165.893749,349.140304 165.893749,348.233398 C165.893749,347.422196 165.701206,346.764814 165.316113,346.26123 C164.931019,345.757647 164.419469,345.505859 163.781445,345.505859 C163.157092,345.505859 162.653517,345.754229 162.270702,346.250977 C161.887888,346.747724 161.696484,347.458654 161.696484,348.383789 Z M174.684309,350.038086 C174.684309,349.696287 174.555567,349.430828 174.298079,349.241699 C174.04059,349.052571 173.591702,348.889649 172.951399,348.75293 C172.311096,348.61621 171.802963,348.452149 171.426985,348.260742 C171.051006,348.069335 170.773014,347.841473 170.593,347.577148 C170.412986,347.312824 170.322981,346.998374 170.322981,346.633789 C170.322981,346.027666 170.579326,345.514976 171.092024,345.095703 C171.604722,344.67643 172.259826,344.466797 173.057356,344.466797 C173.895902,344.466797 174.576071,344.683266 175.097883,345.116211 C175.619696,345.549156 175.880598,346.102861 175.880598,346.777344 L174.609114,346.777344 C174.609114,346.430988 174.462143,346.132488 174.168196,345.881836 C173.874249,345.631184 173.503973,345.505859 173.057356,345.505859 C172.597067,345.505859 172.237045,345.606119 171.977278,345.806641 C171.717511,346.007162 171.587629,346.269204 171.587629,346.592773 C171.587629,346.898114 171.708396,347.128254 171.949934,347.283203 C172.191472,347.438152 172.627828,347.586262 173.259016,347.727539 C173.890204,347.868816 174.401755,348.037434 174.793684,348.233398 C175.185613,348.429363 175.476137,348.6652 175.665266,348.940918 C175.854395,349.216635 175.948957,349.552732 175.948957,349.949219 C175.948957,350.610029 175.684637,351.139809 175.155989,351.538574 C174.62734,351.937339 173.941475,352.136719 173.098372,352.136719 C172.505921,352.136719 171.981837,352.031902 171.526106,351.822266 C171.070374,351.612629 170.71377,351.319826 170.456282,350.943848 C170.198793,350.567869 170.070051,350.161135 170.070051,349.723633 L171.3347,349.723633 C171.357486,350.147463 171.527244,350.48356 171.843977,350.731934 C172.16071,350.980307 172.578838,351.104492 173.098372,351.104492 C173.57689,351.104492 173.960838,351.007651 174.250227,350.813965 C174.539616,350.620279 174.684309,350.361655 174.684309,350.038086 Z M182.852798,346.661133 L185.628189,346.661133 L185.628189,347.857422 L182.852798,347.857422 L182.852798,351.001953 L181.581314,351.001953 L181.581314,347.857422 L178.805923,347.857422 L178.805923,346.661133 L181.581314,346.661133 L181.581314,343.755859 L182.852798,343.755859 L182.852798,346.661133 Z M191.766405,351.104492 C192.217579,351.104492 192.611781,350.967775 192.949022,350.694336 C193.286264,350.420897 193.473111,350.079104 193.509569,349.668945 L194.705858,349.668945 C194.683072,350.092776 194.53724,350.496092 194.268358,350.878906 C193.999477,351.261721 193.640594,351.567056 193.191698,351.794922 C192.742803,352.022788 192.26771,352.136719 191.766405,352.136719 C190.759239,352.136719 189.958303,351.800622 189.363573,351.128418 C188.768844,350.456214 188.471483,349.53679 188.471483,348.370117 L188.471483,348.158203 C188.471483,347.438147 188.603643,346.797854 188.867968,346.237305 C189.132292,345.676755 189.511683,345.241538 190.006151,344.931641 C190.50062,344.621743 191.085087,344.466797 191.759569,344.466797 C192.589,344.466797 193.278284,344.715167 193.82744,345.211914 C194.376597,345.708661 194.6694,346.353512 194.705858,347.146484 L193.509569,347.146484 C193.473111,346.667966 193.29196,346.274904 192.966112,345.967285 C192.640264,345.659666 192.238087,345.505859 191.759569,345.505859 C191.116988,345.505859 190.619109,345.73714 190.265917,346.199707 C189.912725,346.662274 189.736132,347.33105 189.736132,348.206055 L189.736132,348.445312 C189.736132,349.29753 189.911586,349.953774 190.262499,350.414062 C190.613412,350.874351 191.114709,351.104492 191.766405,351.104492 Z M197.426105,348.233398 C197.426105,347.508785 197.568519,346.857099 197.853352,346.27832 C198.138184,345.699541 198.534664,345.252931 199.042805,344.938477 C199.550945,344.624022 200.130855,344.466797 200.782551,344.466797 C201.789717,344.466797 202.604325,344.815426 203.226398,345.512695 C203.848472,346.209964 204.159504,347.137364 204.159504,348.294922 L204.159504,348.383789 C204.159504,349.103845 204.021647,349.749834 203.74593,350.321777 C203.470212,350.89372 203.07601,351.339191 202.563313,351.658203 C202.050615,351.977215 201.461591,352.136719 200.796223,352.136719 C199.793614,352.136719 198.981284,351.788089 198.359211,351.09082 C197.737138,350.393551 197.426105,349.470709 197.426105,348.322266 L197.426105,348.233398 Z M198.69759,348.383789 C198.69759,349.204106 198.887855,349.862628 199.268391,350.359375 C199.648926,350.856122 200.158199,351.104492 200.796223,351.104492 C201.438804,351.104492 201.949216,350.852704 202.327473,350.349121 C202.70573,349.845538 202.894855,349.140304 202.894855,348.233398 C202.894855,347.422196 202.702312,346.764814 202.317219,346.26123 C201.932126,345.757647 201.420575,345.505859 200.782551,345.505859 C200.158199,345.505859 199.654623,345.754229 199.271809,346.250977 C198.888994,346.747724 198.69759,347.458654 198.69759,348.383789 Z M208.575064,344.603516 L208.616079,345.533203 C209.181186,344.822262 209.91946,344.466797 210.830923,344.466797 C212.394082,344.466797 213.182486,345.348624 213.196157,347.112305 L213.196157,352 L211.931509,352 L211.931509,347.105469 C211.926952,346.572263 211.805045,346.178061 211.565786,345.922852 C211.326527,345.667642 210.953972,345.540039 210.448111,345.540039 C210.037952,345.540039 209.67793,345.649413 209.368032,345.868164 C209.058135,346.086915 208.816601,346.374022 208.643423,346.729492 L208.643423,352 L207.378775,352 L207.378775,344.603516 L208.575064,344.603516 Z M218.452538,342.8125 L218.452538,344.603516 L219.833397,344.603516 L219.833397,345.581055 L218.452538,345.581055 L218.452538,350.167969 C218.452538,350.464194 218.51406,350.68636 218.637108,350.834473 C218.760155,350.982585 218.969789,351.056641 219.266014,351.056641 C219.411848,351.056641 219.612367,351.029297 219.867577,350.974609 L219.867577,352 C219.534893,352.091146 219.211328,352.136719 218.896873,352.136719 C218.331766,352.136719 217.905664,351.965822 217.618553,351.624023 C217.331442,351.282225 217.187889,350.796878 217.187889,350.167969 L217.187889,345.581055 L215.841209,345.581055 L215.841209,344.603516 L217.187889,344.603516 L217.187889,342.8125 L218.452538,342.8125 Z M227.509699,352 C227.436782,351.854166 227.377538,351.594403 227.331964,351.220703 C226.744071,351.831383 226.042255,352.136719 225.226496,352.136719 C224.497325,352.136719 223.899187,351.930503 223.432062,351.518066 C222.964937,351.105629 222.731379,350.582685 222.731379,349.949219 C222.731379,349.179033 223.024182,348.580894 223.609797,348.154785 C224.195411,347.728676 225.019134,347.515625 226.080988,347.515625 L227.311457,347.515625 L227.311457,346.93457 C227.311457,346.492511 227.179297,346.140464 226.914972,345.878418 C226.650648,345.616372 226.261004,345.485352 225.746027,345.485352 C225.294853,345.485352 224.916601,345.599283 224.611261,345.827148 C224.305921,346.055014 224.153254,346.330728 224.153254,346.654297 L222.881769,346.654297 C222.881769,346.285154 223.01279,345.92855 223.274836,345.584473 C223.536881,345.240395 223.892346,344.9681 224.341242,344.767578 C224.790137,344.567056 225.283459,344.466797 225.821222,344.466797 C226.67344,344.466797 227.341077,344.679848 227.824152,345.105957 C228.307227,345.532066 228.557876,346.118811 228.576105,346.866211 L228.576105,350.270508 C228.576105,350.949548 228.662693,351.489581 228.835871,351.890625 L228.835871,352 L227.509699,352 Z M225.411066,351.036133 C225.807552,351.036133 226.183525,350.933595 226.538996,350.728516 C226.894466,350.523436 227.151951,350.256838 227.311457,349.928711 L227.311457,348.411133 L226.320246,348.411133 C224.770759,348.411133 223.996027,348.864579 223.996027,349.771484 C223.996027,350.167971 224.128187,350.477863 224.392511,350.701172 C224.656836,350.92448 224.99635,351.036133 225.411066,351.036133 Z M233.907681,342.8125 L233.907681,344.603516 L235.28854,344.603516 L235.28854,345.581055 L233.907681,345.581055 L233.907681,350.167969 C233.907681,350.464194 233.969203,350.68636 234.092251,350.834473 C234.215298,350.982585 234.424932,351.056641 234.721157,351.056641 C234.866991,351.056641 235.06751,351.029297 235.32272,350.974609 L235.32272,352 C234.990036,352.091146 234.666471,352.136719 234.352016,352.136719 C233.786909,352.136719 233.360807,351.965822 233.073696,351.624023 C232.786585,351.282225 232.643032,350.796878 232.643032,350.167969 L232.643032,345.581055 L231.296352,345.581055 L231.296352,344.603516 L232.643032,344.603516 L232.643032,342.8125 L233.907681,342.8125 Z M237.926756,348.233398 C237.926756,347.508785 238.06917,346.857099 238.354002,346.27832 C238.638834,345.699541 239.035315,345.252931 239.543455,344.938477 C240.051596,344.624022 240.631505,344.466797 241.283201,344.466797 C242.290368,344.466797 243.104975,344.815426 243.727049,345.512695 C244.349122,346.209964 244.660154,347.137364 244.660154,348.294922 L244.660154,348.383789 C244.660154,349.103845 244.522298,349.749834 244.24658,350.321777 C243.970863,350.89372 243.576661,351.339191 243.063963,351.658203 C242.551265,351.977215 241.962241,352.136719 241.296873,352.136719 C240.294264,352.136719 239.481935,351.788089 238.859861,351.09082 C238.237788,350.393551 237.926756,349.470709 237.926756,348.322266 L237.926756,348.233398 Z M239.19824,348.383789 C239.19824,349.204106 239.388505,349.862628 239.769041,350.359375 C240.149577,350.856122 240.658849,351.104492 241.296873,351.104492 C241.939454,351.104492 242.449866,350.852704 242.828123,350.349121 C243.20638,349.845538 243.395506,349.140304 243.395506,348.233398 C243.395506,347.422196 243.202962,346.764814 242.817869,346.26123 C242.432776,345.757647 241.921225,345.505859 241.283201,345.505859 C240.658849,345.505859 240.155273,345.754229 239.772459,346.250977 C239.389645,346.747724 239.19824,347.458654 239.19824,348.383789 Z" id="serviços+contato"></path>
        </g>
    </g>
</svg>