<?xml version="1.0" encoding="UTF-8"?>
<svg width="100px" height="50px" viewBox="0 0 100 50" version="1.1" xmlns="http://www.w3.org/2000/svg" xmlns:xlink="http://www.w3.org/1999/xlink">
    <!-- Generator: Sketch 41.2 (35397) - http://www.bohemiancoding.com/sketch -->
    <title>Group 4</title>
    <desc>Created with Sketch.</desc>
    <defs></defs>
    <g id="Page-1" stroke="none" stroke-width="1" fill="none" fill-rule="evenodd">
        <g id="Index" transform="translate(-114.000000, -111.000000)" fill="#000000">
            <g id="Group-4" transform="translate(113.000000, 111.000000)">
                <g id="logo-9too">
                    <g id="Group-3">
                        <g id="Page-1">
                            <g id="Logo-dtoo">
                                <g id="Group-3">
                                    <g id="Group-2">
                                        <g id="Group" transform="translate(15.642445, 25.000000) rotate(180.000000) translate(-15.642445, -25.000000) translate(0.642445, 0.000000)">
                                            <path d="M26.3840832,43.9695163 C23.7325316,47.624353 19.4350577,50 14.584535,50 C6.5297188,50 1.66666847e-07,43.4488723 1.66666847e-07,35.367647 C1.66666847e-07,27.2864217 6.5297188,20.7352941 14.584535,20.7352941 C19.4350577,20.7352941 23.7325316,23.110941 26.3840832,26.7657778 L26.3840832,7.10542736e-15 L29.315648,7.10542736e-15 L29.315648,50 L26.3840832,50 L26.3840832,43.9695163 Z M14.584535,46.9117647 C21.0202926,46.9117647 26.237505,41.6774467 26.237505,35.2205883 C26.237505,28.7637298 21.0202926,23.5294118 14.584535,23.5294118 C8.14877733,23.5294118 2.93156495,28.7637298 2.93156495,35.2205883 C2.93156495,41.6774467 8.14877733,46.9117647 14.584535,46.9117647 Z" id="Combined-Shape" transform="translate(14.657824, 25.000000) scale(-1, 1) translate(-14.657824, -25.000000) "></path>
                                            <path d="M26.3840832,43.9695163 C23.7325316,47.624353 19.4350577,50 14.584535,50 C6.5297188,50 1.66666869e-07,43.4488723 1.66666869e-07,35.367647 C1.66666869e-07,27.2864217 6.5297188,20.7352941 14.584535,20.7352941 C19.4350577,20.7352941 23.7325316,23.110941 26.3840832,26.7657778 L26.3840832,7.10542736e-15 L29.315648,7.10542736e-15 L29.315648,50 L26.3840832,50 L26.3840832,43.9695163 Z M14.584535,46.9117647 C21.0202926,46.9117647 26.237505,41.6774467 26.237505,35.2205883 C26.237505,28.7637298 21.0202926,23.5294118 14.584535,23.5294118 C8.14877733,23.5294118 2.93156495,28.7637298 2.93156495,35.2205883 C2.93156495,41.6774467 8.14877733,46.9117647 14.584535,46.9117647 Z" id="Combined-Shape" transform="translate(14.657824, 25.000000) scale(-1, 1) translate(-14.657824, -25.000000) "></path>
                                        </g>
                                    </g>
                                    <polygon id="Combined-Shape" points="36.5055747 14.7058824 36.5055747 0 33.57401 0 33.57401 50 36.5055747 50 36.5055747 17.6470588 39.4371397 17.6470588 39.4371397 14.7058824"></polygon>
                                    <path d="M54.0216743,49.8529413 C62.0764907,49.8529413 68.606209,43.3018137 68.606209,35.2205883 C68.606209,27.1393629 62.0764907,20.5882353 54.0216743,20.5882353 C45.9668583,20.5882353 39.4371397,27.1393629 39.4371397,35.2205883 C39.4371397,43.3018137 45.9668583,49.8529413 54.0216743,49.8529413 Z M54.1682527,47.0588237 C60.6040103,47.0588237 65.8212227,41.8245057 65.8212227,35.367647 C65.8212227,28.9107886 60.6040103,23.6764706 54.1682527,23.6764706 C47.732495,23.6764706 42.5152827,28.9107886 42.5152827,35.367647 C42.5152827,41.8245057 47.732495,47.0588237 54.1682527,47.0588237 Z" id="Combined-Shape"></path>
                                    <path d="M86.4154653,49.8529413 C94.4702813,49.8529413 101,43.3018137 101,35.2205883 C101,27.1393629 94.4702813,20.5882353 86.4154653,20.5882353 C78.360649,20.5882353 71.8309303,27.1393629 71.8309303,35.2205883 C71.8309303,43.3018137 78.360649,49.8529413 86.4154653,49.8529413 Z M86.4154653,47.0588237 C92.8512227,47.0588237 98.0684353,41.8245057 98.0684353,35.367647 C98.0684353,28.9107886 92.8512227,23.6764706 86.4154653,23.6764706 C79.9797077,23.6764706 74.7624953,28.9107886 74.7624953,35.367647 C74.7624953,41.8245057 79.9797077,47.0588237 86.4154653,47.0588237 Z" id="Combined-Shape"></path>
                                </g>
                            </g>
                        </g>
                    </g>
                </g>
            </g>
        </g>
    </g>
</svg>