<?xml version="1.0" encoding="UTF-8"?>
<svg width="32px" height="32px" viewBox="0 0 32 32" version="1.1" xmlns="http://www.w3.org/2000/svg" xmlns:xlink="http://www.w3.org/1999/xlink">
    <!-- Generator: Sketch 41.2 (35397) - http://www.bohemiancoding.com/sketch -->
    <title>Group 7</title>
    <desc>Created with Sketch.</desc>
    <defs></defs>
    <g id="Page-1" stroke="none" stroke-width="1" fill="none" fill-rule="evenodd">
        <g id="Index" transform="translate(-160.000000, -420.000000)">
            <g id="Group-7" transform="translate(160.000000, 420.000000)">
                <rect id="Rectangle-2" fill-opacity="0.01" fill="#D8D8D8" x="0" y="0" width="32" height="32"></rect>
                <g id="logo-9too" transform="translate(0.000000, 8.000000)" fill="#DC1E65">
                    <g id="Group-3">
                        <g id="Page-1">
                            <g id="Logo-dtoo">
                                <g id="Group-3">
                                    <g id="Group-2">
                                        <g id="Group" transform="translate(4.956022, 7.920792) rotate(180.000000) translate(-4.956022, -7.920792) translate(0.203547, 0.000000)">
                                            <path d="M8.35931349,13.9309359 C7.51921794,15.0889039 6.15764204,15.8415842 4.62084276,15.8415842 C2.0688218,15.8415842 5.28053377e-08,13.7659794 5.28053377e-08,11.2055911 C5.28053377e-08,8.6452029 2.0688218,6.56959814 4.62084276,6.56959814 C6.15764204,6.56959814 7.51921794,7.32227833 8.35931349,8.48024644 L8.35931349,2.66453526e-15 L9.2881261,2.66453526e-15 L9.2881261,15.8415842 L8.35931349,15.8415842 L8.35931349,13.9309359 Z M4.62084276,14.8631334 C6.65989469,14.8631334 8.31287286,13.2047356 8.31287286,11.1589983 C8.31287286,9.11326092 6.65989469,7.45486313 4.62084276,7.45486313 C2.58179084,7.45486313 0.928812657,9.11326092 0.928812657,11.1589983 C0.928812657,13.2047356 2.58179084,14.8631334 4.62084276,14.8631334 Z" id="Combined-Shape" transform="translate(4.644063, 7.920792) scale(-1, 1) translate(-4.644063, -7.920792) "></path>
                                            <path d="M8.35931349,13.9309359 C7.51921794,15.0889039 6.15764204,15.8415842 4.62084276,15.8415842 C2.0688218,15.8415842 5.28053448e-08,13.7659794 5.28053448e-08,11.2055911 C5.28053448e-08,8.6452029 2.0688218,6.56959814 4.62084276,6.56959814 C6.15764204,6.56959814 7.51921794,7.32227833 8.35931349,8.48024644 L8.35931349,2.66453526e-15 L9.2881261,2.66453526e-15 L9.2881261,15.8415842 L8.35931349,15.8415842 L8.35931349,13.9309359 Z M4.62084276,14.8631334 C6.65989469,14.8631334 8.31287286,13.2047356 8.31287286,11.1589983 C8.31287286,9.11326092 6.65989469,7.45486313 4.62084276,7.45486313 C2.58179084,7.45486313 0.928812657,9.11326092 0.928812657,11.1589983 C0.928812657,13.2047356 2.58179084,14.8631334 4.62084276,14.8631334 Z" id="Combined-Shape" transform="translate(4.644063, 7.920792) scale(-1, 1) translate(-4.644063, -7.920792) "></path>
                                        </g>
                                    </g>
                                    <polygon id="Combined-Shape" points="11.5661227 4.65928946 11.5661227 0 10.6373101 0 10.6373101 15.8415842 11.5661227 15.8415842 11.5661227 5.59114735 12.4949353 5.59114735 12.4949353 4.65928946"></polygon>
                                    <path d="M17.115778,15.7949913 C19.667799,15.7949913 21.7366207,13.7193865 21.7366207,11.1589983 C21.7366207,8.59861002 19.667799,6.52300524 17.115778,6.52300524 C14.5637571,6.52300524 12.4949353,8.59861002 12.4949353,11.1589983 C12.4949353,13.7193865 14.5637571,15.7949913 17.115778,15.7949913 Z M17.1622187,14.9097263 C19.2012706,14.9097263 20.8542488,13.2513285 20.8542488,11.2055911 C20.8542488,9.15985381 19.2012706,7.50145603 17.1622187,7.50145603 C15.1231667,7.50145603 13.4701886,9.15985381 13.4701886,11.2055911 C13.4701886,13.2513285 15.1231667,14.9097263 17.1622187,14.9097263 Z" id="Combined-Shape"></path>
                                    <path d="M27.3791573,15.7949913 C29.9311782,15.7949913 32,13.7193865 32,11.1589983 C32,8.59861002 29.9311782,6.52300524 27.3791573,6.52300524 C24.8271363,6.52300524 22.7583146,8.59861002 22.7583146,11.1589983 C22.7583146,13.7193865 24.8271363,15.7949913 27.3791573,15.7949913 Z M27.3791573,14.9097263 C29.4182092,14.9097263 31.0711874,13.2513285 31.0711874,11.2055911 C31.0711874,9.15985381 29.4182092,7.50145603 27.3791573,7.50145603 C25.3401054,7.50145603 23.6871272,9.15985381 23.6871272,11.2055911 C23.6871272,13.2513285 25.3401054,14.9097263 27.3791573,14.9097263 Z" id="Combined-Shape"></path>
                                </g>
                            </g>
                        </g>
                    </g>
                </g>
            </g>
        </g>
    </g>
</svg>