<?xml version="1.0" encoding="UTF-8"?>
<svg width="48px" height="60px" viewBox="0 0 48 60" version="1.1" xmlns="http://www.w3.org/2000/svg" xmlns:xlink="http://www.w3.org/1999/xlink">
    <!-- Generator: Sketch 41.2 (35397) - http://www.bohemiancoding.com/sketch -->
    <title>Group 6</title>
    <desc>Created with Sketch.</desc>
    <defs>
        <circle id="path-1" cx="20" cy="20" r="20"></circle>
        <filter x="-50%" y="-50%" width="200%" height="200%" filterUnits="objectBoundingBox" id="filter-2">
            <feOffset dx="0" dy="2" in="SourceAlpha" result="shadowOffsetOuter1"></feOffset>
            <feGaussianBlur stdDeviation="2" in="shadowOffsetOuter1" result="shadowBlurOuter1"></feGaussianBlur>
            <feColorMatrix values="0 0 0 0 0   0 0 0 0 0   0 0 0 0 0  0 0 0 0.5 0" type="matrix" in="shadowBlurOuter1"></feColorMatrix>
        </filter>
    </defs>
    <g id="Page-1" stroke="none" stroke-width="1" fill="none" fill-rule="evenodd">
        <g id="iPhone-SE" transform="translate(-178.000000, -242.000000)">
            <g id="Group-6" transform="translate(182.000000, 244.000000)">
                <g id="Group-5">
                    <g id="Group-2">
                        <g id="Group" opacity="0.3">
                            <g id="Oval-6">
                                <use fill="black" fill-opacity="1" filter="url(#filter-2)" xlink:href="#path-1"></use>
                                <use fill="#FFFFFF" fill-rule="evenodd" xlink:href="#path-1"></use>
                            </g>
                        </g>
                        <circle id="Oval-5" stroke="#FFFFFF" stroke-width="5" fill="#DC1E65" cx="20" cy="20" r="8"></circle>
                    </g>
                </g>
                <path d="M6.80761719,55.0976562 C6.35839619,55.0976562 5.95231301,54.9869803 5.58935547,54.765625 C5.22639792,54.5442697 4.94401143,54.2358418 4.7421875,53.840332 C4.54036357,53.4448222 4.43945312,53.0013045 4.43945312,52.5097656 L4.43945312,52.2998047 C4.43945312,51.7919896 4.53792219,51.3346375 4.73486328,50.9277344 C4.93180437,50.5208313 5.20605293,50.2010103 5.55761719,49.9682617 C5.90918145,49.7355132 6.29003701,49.6191406 6.70019531,49.6191406 C7.34147456,49.6191406 7.85009578,49.8380512 8.22607422,50.2758789 C8.60205266,50.7137066 8.79003906,51.3118452 8.79003906,52.0703125 L8.79003906,52.3974609 L5.02050781,52.3974609 L5.02050781,52.5097656 C5.02050781,53.108727 5.19221833,53.6075826 5.53564453,54.0063477 C5.87907073,54.4051127 6.31119531,54.6044922 6.83203125,54.6044922 C7.14453281,54.6044922 7.42040896,54.5475266 7.65966797,54.4335938 C7.89892698,54.3196609 8.11620996,54.137371 8.31152344,53.8867188 L8.67773438,54.1650391 C8.24804473,54.786787 7.62467856,55.0976562 6.80761719,55.0976562 Z M6.70019531,50.1171875 C6.26073999,50.1171875 5.89046375,50.2783187 5.58935547,50.6005859 C5.28824719,50.9228532 5.10514355,51.3557916 5.04003906,51.8994141 L8.20898438,51.8994141 L8.20898438,51.8359375 C8.19270825,51.3281225 8.04785293,50.9147151 7.77441406,50.5957031 C7.5009752,50.2766911 7.14290586,50.1171875 6.70019531,50.1171875 Z M11.5878906,51.8603516 L13.0136719,49.7167969 L13.7070312,49.7167969 L11.9150391,52.3095703 L13.7851562,55 L13.0966797,55 L11.5927734,52.7636719 L10.0888672,55 L9.40039062,55 L11.265625,52.3095703 L9.47363281,49.7167969 L10.1621094,49.7167969 L11.5878906,51.8603516 Z M19.0390625,52.4121094 C19.0390625,53.2356812 18.8567727,53.8891577 18.4921875,54.3725586 C18.1276023,54.8559594 17.639326,55.0976562 17.0273438,55.0976562 C16.3046839,55.0976562 15.751304,54.8437525 15.3671875,54.3359375 L15.3671875,57.03125 L14.7861328,57.03125 L14.7861328,49.7167969 L15.328125,49.7167969 L15.3574219,50.4638672 C15.7382832,49.9007133 16.2900354,49.6191406 17.0126953,49.6191406 C17.6442089,49.6191406 18.1398094,49.858396 18.4995117,50.3369141 C18.859214,50.8154321 19.0390625,51.4794879 19.0390625,52.3291016 L19.0390625,52.4121094 Z M18.453125,52.3095703 C18.453125,51.6357388 18.31478,51.1035176 18.0380859,50.7128906 C17.7613918,50.3222637 17.3756535,50.1269531 16.8808594,50.1269531 C16.5227847,50.1269531 16.2151706,50.2132153 15.9580078,50.3857422 C15.7008451,50.5582691 15.5039069,50.8089176 15.3671875,51.1376953 L15.3671875,53.671875 C15.5071622,53.9746109 15.7073555,54.2057284 15.9677734,54.3652344 C16.2281914,54.5247404 16.5358055,54.6044922 16.890625,54.6044922 C17.3821639,54.6044922 17.7654609,54.4083678 18.0405273,54.0161133 C18.3155938,53.6238587 18.453125,53.0550167 18.453125,52.3095703 Z M20.9873047,55 L20.4013672,55 L20.4013672,47.5 L20.9873047,47.5 L20.9873047,55 Z M22.2519531,52.2802734 C22.2519531,51.7724584 22.3504222,51.3151062 22.5473633,50.9082031 C22.7443044,50.5013 23.0226219,50.1847342 23.3823242,49.9584961 C23.7420265,49.732258 24.1497373,49.6191406 24.6054688,49.6191406 C25.3085973,49.6191406 25.878253,49.8657202 26.3144531,50.3588867 C26.7506532,50.8520532 26.96875,51.5055298 26.96875,52.3193359 L26.96875,52.4414062 C26.96875,52.9524765 26.8702809,53.4122701 26.6733398,53.8208008 C26.4763988,54.2293315 26.198895,54.5442697 25.8408203,54.765625 C25.4827456,54.9869803 25.074221,55.0976562 24.6152344,55.0976562 C23.9153611,55.0976562 23.3465191,54.8510767 22.9086914,54.3579102 C22.4708637,53.8647436 22.2519531,53.2112671 22.2519531,52.3974609 L22.2519531,52.2802734 Z M22.8378906,52.4414062 C22.8378906,53.0729198 23.0014632,53.5913066 23.3286133,53.996582 C23.6557634,54.4018575 24.0846328,54.6044922 24.6152344,54.6044922 C25.1425808,54.6044922 25.5698226,54.4018575 25.8969727,53.996582 C26.2241227,53.5913066 26.3876953,53.0566439 26.3876953,52.3925781 L26.3876953,52.2802734 C26.3876953,51.8766256 26.3128263,51.5071631 26.1630859,51.171875 C26.0133456,50.8365869 25.8033868,50.5769866 25.5332031,50.3930664 C25.2630195,50.2091462 24.9537778,50.1171875 24.6054688,50.1171875 C24.0846328,50.1171875 23.6598324,50.3214498 23.3310547,50.7299805 C23.002277,51.1385112 22.8378906,51.6731738 22.8378906,52.3339844 L22.8378906,52.4414062 Z M30.6162109,50.2148438 C30.4925124,50.1920572 30.3606778,50.1806641 30.2207031,50.1806641 C29.856118,50.1806641 29.5476901,50.2823883 29.2954102,50.4858398 C29.0431302,50.6892914 28.8632818,50.9846986 28.7558594,51.3720703 L28.7558594,55 L28.1748047,55 L28.1748047,49.7167969 L28.7460938,49.7167969 L28.7558594,50.5566406 C29.0651057,49.9316375 29.56152,49.6191406 30.2451172,49.6191406 C30.4078784,49.6191406 30.5364579,49.6402993 30.6308594,49.6826172 L30.6162109,50.2148438 Z M33.4921875,55.0976562 C33.0429665,55.0976562 32.6368833,54.9869803 32.2739258,54.765625 C31.9109682,54.5442697 31.6285817,54.2358418 31.4267578,53.840332 C31.2249339,53.4448222 31.1240234,53.0013045 31.1240234,52.5097656 L31.1240234,52.2998047 C31.1240234,51.7919896 31.2224925,51.3346375 31.4194336,50.9277344 C31.6163747,50.5208313 31.8906232,50.2010103 32.2421875,49.9682617 C32.5937518,49.7355132 32.9746073,49.6191406 33.3847656,49.6191406 C34.0260449,49.6191406 34.5346661,49.8380512 34.9106445,50.2758789 C35.286623,50.7137066 35.4746094,51.3118452 35.4746094,52.0703125 L35.4746094,52.3974609 L31.7050781,52.3974609 L31.7050781,52.5097656 C31.7050781,53.108727 31.8767886,53.6075826 32.2202148,54.0063477 C32.563641,54.4051127 32.9957656,54.6044922 33.5166016,54.6044922 C33.8291031,54.6044922 34.1049793,54.5475266 34.3442383,54.4335938 C34.5834973,54.3196609 34.8007803,54.137371 34.9960938,53.8867188 L35.3623047,54.1650391 C34.932615,54.786787 34.3092489,55.0976562 33.4921875,55.0976562 Z M33.3847656,50.1171875 C32.9453103,50.1171875 32.5750341,50.2783187 32.2739258,50.6005859 C31.9728175,50.9228532 31.7897139,51.3557916 31.7246094,51.8994141 L34.8935547,51.8994141 L34.8935547,51.8359375 C34.8772786,51.3281225 34.7324232,50.9147151 34.4589844,50.5957031 C34.1855455,50.2766911 33.8274762,50.1171875 33.3847656,50.1171875 Z" id="explore" fill="#000000"></path>
            </g>
        </g>
    </g>
</svg>