<?xml version="1.0" encoding="UTF-8"?>
<svg width="187px" height="81px" viewBox="0 0 187 81" version="1.1" xmlns="http://www.w3.org/2000/svg" xmlns:xlink="http://www.w3.org/1999/xlink">
    <!-- Generator: Sketch 41.2 (35397) - http://www.bohemiancoding.com/sketch -->
    <title>Group 4</title>
    <desc>Created with Sketch.</desc>
    <defs></defs>
    <g id="Page-1" stroke="none" stroke-width="1" fill="none" fill-rule="evenodd">
        <g id="iPhone-SE" transform="translate(-70.000000, -111.000000)">
            <g id="Group-4" transform="translate(70.000000, 111.000000)">
                <g id="logo-9too" transform="translate(43.000000, 0.000000)" fill="#DC1E65">
                    <g id="Group-3">
                        <g id="Page-1">
                            <g id="Logo-dtoo">
                                <g id="Group-3">
                                    <g id="Group-2">
                                        <g id="Group" transform="translate(15.642445, 25.000000) rotate(180.000000) translate(-15.642445, -25.000000) translate(0.642445, 0.000000)">
                                            <path d="M26.3840832,43.9695163 C23.7325316,47.624353 19.4350577,50 14.584535,50 C6.5297188,50 1.66666847e-07,43.4488723 1.66666847e-07,35.367647 C1.66666847e-07,27.2864217 6.5297188,20.7352941 14.584535,20.7352941 C19.4350577,20.7352941 23.7325316,23.110941 26.3840832,26.7657778 L26.3840832,7.10542736e-15 L29.315648,7.10542736e-15 L29.315648,50 L26.3840832,50 L26.3840832,43.9695163 Z M14.584535,46.9117647 C21.0202926,46.9117647 26.237505,41.6774467 26.237505,35.2205883 C26.237505,28.7637298 21.0202926,23.5294118 14.584535,23.5294118 C8.14877733,23.5294118 2.93156495,28.7637298 2.93156495,35.2205883 C2.93156495,41.6774467 8.14877733,46.9117647 14.584535,46.9117647 Z" id="Combined-Shape" transform="translate(14.657824, 25.000000) scale(-1, 1) translate(-14.657824, -25.000000) "></path>
                                            <path d="M26.3840832,43.9695163 C23.7325316,47.624353 19.4350577,50 14.584535,50 C6.5297188,50 1.66666869e-07,43.4488723 1.66666869e-07,35.367647 C1.66666869e-07,27.2864217 6.5297188,20.7352941 14.584535,20.7352941 C19.4350577,20.7352941 23.7325316,23.110941 26.3840832,26.7657778 L26.3840832,7.10542736e-15 L29.315648,7.10542736e-15 L29.315648,50 L26.3840832,50 L26.3840832,43.9695163 Z M14.584535,46.9117647 C21.0202926,46.9117647 26.237505,41.6774467 26.237505,35.2205883 C26.237505,28.7637298 21.0202926,23.5294118 14.584535,23.5294118 C8.14877733,23.5294118 2.93156495,28.7637298 2.93156495,35.2205883 C2.93156495,41.6774467 8.14877733,46.9117647 14.584535,46.9117647 Z" id="Combined-Shape" transform="translate(14.657824, 25.000000) scale(-1, 1) translate(-14.657824, -25.000000) "></path>
                                        </g>
                                    </g>
                                    <polygon id="Combined-Shape" points="36.5055747 14.7058824 36.5055747 0 33.57401 0 33.57401 50 36.5055747 50 36.5055747 17.6470588 39.4371397 17.6470588 39.4371397 14.7058824"></polygon>
                                    <path d="M54.0216743,49.8529413 C62.0764907,49.8529413 68.606209,43.3018137 68.606209,35.2205883 C68.606209,27.1393629 62.0764907,20.5882353 54.0216743,20.5882353 C45.9668583,20.5882353 39.4371397,27.1393629 39.4371397,35.2205883 C39.4371397,43.3018137 45.9668583,49.8529413 54.0216743,49.8529413 Z M54.1682527,47.0588237 C60.6040103,47.0588237 65.8212227,41.8245057 65.8212227,35.367647 C65.8212227,28.9107886 60.6040103,23.6764706 54.1682527,23.6764706 C47.732495,23.6764706 42.5152827,28.9107886 42.5152827,35.367647 C42.5152827,41.8245057 47.732495,47.0588237 54.1682527,47.0588237 Z" id="Combined-Shape"></path>
                                    <path d="M86.4154653,49.8529413 C94.4702813,49.8529413 101,43.3018137 101,35.2205883 C101,27.1393629 94.4702813,20.5882353 86.4154653,20.5882353 C78.360649,20.5882353 71.8309303,27.1393629 71.8309303,35.2205883 C71.8309303,43.3018137 78.360649,49.8529413 86.4154653,49.8529413 Z M86.4154653,47.0588237 C92.8512227,47.0588237 98.0684353,41.8245057 98.0684353,35.367647 C98.0684353,28.9107886 92.8512227,23.6764706 86.4154653,23.6764706 C79.9797077,23.6764706 74.7624953,28.9107886 74.7624953,35.367647 C74.7624953,41.8245057 79.9797077,47.0588237 86.4154653,47.0588237 Z" id="Combined-Shape"></path>
                                </g>
                            </g>
                        </g>
                    </g>
                </g>
                <path d="M4.7890625,75.9101562 L0.798828125,75.9101562 L0.798828125,79.390625 L5.38671875,79.390625 L5.38671875,80 L0.078125,80 L0.078125,71.46875 L5.35742188,71.46875 L5.35742188,72.0839844 L0.798828125,72.0839844 L0.798828125,75.3007812 L4.7890625,75.3007812 L4.7890625,75.9101562 Z M9.5,75.078125 L11.9023438,71.46875 L12.7636719,71.46875 L9.93945312,75.6757812 L12.8515625,80 L11.984375,80 L9.5,76.2734375 L7.00390625,80 L6.1484375,80 L9.06640625,75.6757812 L6.23632812,71.46875 L7.09765625,71.46875 L9.5,75.078125 Z M14.9667969,76.5253906 L14.9667969,80 L14.2460938,80 L14.2460938,71.46875 L17.1523438,71.46875 C18.0390669,71.46875 18.7392552,71.6953102 19.2529297,72.1484375 C19.7666041,72.6015648 20.0234375,73.2246054 20.0234375,74.0175781 C20.0234375,74.8183634 19.7763697,75.4365213 19.2822266,75.8720703 C18.7880835,76.3076194 18.0722703,76.5253906 17.1347656,76.5253906 L14.9667969,76.5253906 Z M14.9667969,75.9160156 L17.1523438,75.9160156 C17.851566,75.9160156 18.3847638,75.7500017 18.7519531,75.4179688 C19.1191425,75.0859358 19.3027344,74.6230498 19.3027344,74.0292969 C19.3027344,73.4394502 19.120119,72.9697283 18.7548828,72.6201172 C18.3896466,72.2705061 17.8710971,72.0917969 17.1992188,72.0839844 L14.9667969,72.0839844 L14.9667969,75.9160156 Z M22.3613281,79.390625 L26.5742188,79.390625 L26.5742188,80 L21.6347656,80 L21.6347656,71.46875 L22.3613281,71.46875 L22.3613281,79.390625 Z M33.8808594,76.1972656 C33.8808594,76.9824258 33.7451185,77.671872 33.4736328,78.265625 C33.2021471,78.859378 32.8144556,79.3164046 32.3105469,79.6367188 C31.8066381,79.9570329 31.2246127,80.1171875 30.5644531,80.1171875 C29.5683544,80.1171875 28.7636749,79.7607458 28.1503906,79.0478516 C27.5371063,78.3349574 27.2304688,77.3730529 27.2304688,76.1621094 L27.2304688,75.2832031 C27.2304688,74.5058555 27.3681627,73.8173858 27.6435547,73.2177734 C27.9189467,72.6181611 28.3085912,72.1572282 28.8125,71.8349609 C29.3164088,71.5126937 29.8964811,71.3515625 30.5527344,71.3515625 C31.2089877,71.3515625 31.7880834,71.509764 32.2900391,71.8261719 C32.7919947,72.1425797 33.1796861,72.5898409 33.453125,73.1679688 C33.7265639,73.7460966 33.8691406,74.4160118 33.8808594,75.1777344 L33.8808594,76.1972656 Z M33.1601562,75.2714844 C33.1601562,74.2441355 32.9277367,73.439456 32.4628906,72.8574219 C31.9980446,72.2753877 31.3613322,71.984375 30.5527344,71.984375 C29.7597617,71.984375 29.127932,72.2763643 28.6572266,72.8603516 C28.1865211,73.4443389 27.9511719,74.2597604 27.9511719,75.3066406 L27.9511719,76.1972656 C27.9511719,77.2089894 28.1855445,78.0107392 28.6542969,78.6025391 C29.1230492,79.1943389 29.7597616,79.4902344 30.5644531,79.4902344 C31.3808635,79.4902344 32.0175758,79.1982451 32.4746094,78.6142578 C32.9316429,78.0302705 33.1601562,77.2168021 33.1601562,76.1738281 L33.1601562,75.2714844 Z M38.8847656,76.4492188 L36.40625,76.4492188 L36.40625,80 L35.6796875,80 L35.6796875,71.46875 L38.4511719,71.46875 C39.3613327,71.46875 40.0722631,71.6894509 40.5839844,72.1308594 C41.0957057,72.5722678 41.3515625,73.1894492 41.3515625,73.9824219 C41.3515625,74.5292996 41.1914079,75.0117167 40.8710938,75.4296875 C40.5507796,75.8476583 40.1210964,76.1367179 39.5820312,76.296875 L41.7148438,79.9238281 L41.7148438,80 L40.9472656,80 L38.8847656,76.4492188 Z M36.40625,75.8339844 L38.6152344,75.8339844 C39.2207062,75.8339844 39.7070294,75.6621111 40.0742188,75.3183594 C40.4414081,74.9746077 40.625,74.5292996 40.625,73.9824219 C40.625,73.3808564 40.4335957,72.9140642 40.0507812,72.5820312 C39.6679668,72.2499983 39.1308628,72.0839844 38.4394531,72.0839844 L36.40625,72.0839844 L36.40625,75.8339844 Z M47.9199219,77.609375 L44.046875,77.609375 L43.1679688,80 L42.4121094,80 L45.640625,71.46875 L46.3261719,71.46875 L49.5546875,80 L48.8046875,80 L47.9199219,77.609375 Z M44.2695312,76.9941406 L47.6914062,76.9941406 L45.9804688,72.3476562 L44.2695312,76.9941406 Z M57.1601562,80 L56.4394531,80 L51.5351562,72.6992188 L51.5351562,80 L50.8085938,80 L50.8085938,71.46875 L51.5351562,71.46875 L56.4453125,78.7753906 L56.4453125,71.46875 L57.1601562,71.46875 L57.1601562,80 Z M59.328125,80 L59.328125,71.46875 L61.7128906,71.46875 C62.4121129,71.46875 63.0390597,71.6279281 63.59375,71.9462891 C64.1484403,72.26465 64.5810531,72.7207002 64.8916016,73.3144531 C65.20215,73.9082061 65.3574219,74.5839806 65.3574219,75.3417969 L65.3574219,76.1269531 C65.3574219,76.8886757 65.2031265,77.5644502 64.8945312,78.1542969 C64.585936,78.7441436 64.15137,79.1992171 63.5908203,79.5195312 C63.0302706,79.8398454 62.3867224,80 61.6601563,80 L59.328125,80 Z M60.0488281,72.0839844 L60.0488281,79.390625 L61.6660156,79.390625 C62.5644576,79.390625 63.2851535,79.0927764 63.828125,78.4970703 C64.3710965,77.9013642 64.6425781,77.0957082 64.6425781,76.0800781 L64.6425781,75.3300781 C64.6425781,74.3496045 64.3750027,73.5644561 63.8398438,72.9746094 C63.3046848,72.3847627 62.5996138,72.0878906 61.7246094,72.0839844 L60.0488281,72.0839844 Z M73.4902344,76.1972656 C73.4902344,76.9824258 73.3544935,77.671872 73.0830078,78.265625 C72.8115221,78.859378 72.4238306,79.3164046 71.9199219,79.6367188 C71.4160131,79.9570329 70.8339877,80.1171875 70.1738281,80.1171875 C69.1777294,80.1171875 68.3730499,79.7607458 67.7597656,79.0478516 C67.1464813,78.3349574 66.8398438,77.3730529 66.8398438,76.1621094 L66.8398438,75.2832031 C66.8398438,74.5058555 66.9775377,73.8173858 67.2529297,73.2177734 C67.5283217,72.6181611 67.9179662,72.1572282 68.421875,71.8349609 C68.9257838,71.5126937 69.5058561,71.3515625 70.1621094,71.3515625 C70.8183627,71.3515625 71.3974584,71.509764 71.8994141,71.8261719 C72.4013697,72.1425797 72.7890611,72.5898409 73.0625,73.1679688 C73.3359389,73.7460966 73.4785156,74.4160118 73.4902344,75.1777344 L73.4902344,76.1972656 Z M72.7695312,75.2714844 C72.7695312,74.2441355 72.5371117,73.439456 72.0722656,72.8574219 C71.6074196,72.2753877 70.9707072,71.984375 70.1621094,71.984375 C69.3691367,71.984375 68.737307,72.2763643 68.2666016,72.8603516 C67.7958961,73.4443389 67.5605469,74.2597604 67.5605469,75.3066406 L67.5605469,76.1972656 C67.5605469,77.2089894 67.7949195,78.0107392 68.2636719,78.6025391 C68.7324242,79.1943389 69.3691366,79.4902344 70.1738281,79.4902344 C70.9902385,79.4902344 71.6269508,79.1982451 72.0839844,78.6142578 C72.5410179,78.0302705 72.7695312,77.2168021 72.7695312,76.1738281 L72.7695312,75.2714844 Z M84.5761719,80 L83.8554688,80 L78.9511719,72.6992188 L78.9511719,80 L78.2246094,80 L78.2246094,71.46875 L78.9511719,71.46875 L83.8613281,78.7753906 L83.8613281,71.46875 L84.5761719,71.46875 L84.5761719,80 Z M93.0488281,76.1972656 C93.0488281,76.9824258 92.9130873,77.671872 92.6416016,78.265625 C92.3701158,78.859378 91.9824244,79.3164046 91.4785156,79.6367188 C90.9746069,79.9570329 90.3925814,80.1171875 89.7324219,80.1171875 C88.7363231,80.1171875 87.9316437,79.7607458 87.3183594,79.0478516 C86.7050751,78.3349574 86.3984375,77.3730529 86.3984375,76.1621094 L86.3984375,75.2832031 C86.3984375,74.5058555 86.5361314,73.8173858 86.8115234,73.2177734 C87.0869154,72.6181611 87.47656,72.1572282 87.9804688,71.8349609 C88.4843775,71.5126937 89.0644498,71.3515625 89.7207031,71.3515625 C90.3769564,71.3515625 90.9560522,71.509764 91.4580078,71.8261719 C91.9599634,72.1425797 92.3476549,72.5898409 92.6210938,73.1679688 C92.8945326,73.7460966 93.0371093,74.4160118 93.0488281,75.1777344 L93.0488281,76.1972656 Z M92.328125,75.2714844 C92.328125,74.2441355 92.0957054,73.439456 91.6308594,72.8574219 C91.1660133,72.2753877 90.5293009,71.984375 89.7207031,71.984375 C88.9277304,71.984375 88.2959008,72.2763643 87.8251953,72.8603516 C87.3544898,73.4443389 87.1191406,74.2597604 87.1191406,75.3066406 L87.1191406,76.1972656 C87.1191406,77.2089894 87.3535133,78.0107392 87.8222656,78.6025391 C88.291018,79.1943389 88.9277304,79.4902344 89.7324219,79.4902344 C90.5488322,79.4902344 91.1855446,79.1982451 91.6425781,78.6142578 C92.0996117,78.0302705 92.328125,77.2168021 92.328125,76.1738281 L92.328125,75.2714844 Z M97.3085937,78.9453125 L97.3554687,79.1269531 L97.4082031,78.9453125 L100.091797,71.46875 L100.882812,71.46875 L97.7070312,80 L97.015625,80 L93.8398437,71.46875 L94.625,71.46875 L97.3085937,78.9453125 Z M106.302734,77.609375 L102.429688,77.609375 L101.550781,80 L100.794922,80 L104.023438,71.46875 L104.708984,71.46875 L107.9375,80 L107.1875,80 L106.302734,77.609375 Z M102.652344,76.9941406 L106.074219,76.9941406 L104.363281,72.3476562 L102.652344,76.9941406 Z M114.019531,77.9023438 C114.019531,77.4296851 113.853517,77.0556654 113.521484,76.7802734 C113.189451,76.5048814 112.582036,76.2431653 111.699219,75.9951172 C110.816402,75.7470691 110.171877,75.476564 109.765625,75.1835938 C109.187497,74.7695292 108.898438,74.2265659 108.898438,73.5546875 C108.898438,72.9023405 109.16699,72.3720724 109.704102,71.9638672 C110.241214,71.555662 110.92773,71.3515625 111.763672,71.3515625 C112.330081,71.3515625 112.836912,71.4609364 113.28418,71.6796875 C113.731448,71.8984386 114.078124,72.203123 114.324219,72.59375 C114.570314,72.984377 114.693359,73.4199195 114.693359,73.9003906 L113.966797,73.9003906 C113.966797,73.3183565 113.76758,72.8505877 113.369141,72.4970703 C112.970701,72.1435529 112.43555,71.9667969 111.763672,71.9667969 C111.111325,71.9667969 110.591799,72.1123032 110.205078,72.4033203 C109.818357,72.6943374 109.625,73.0742164 109.625,73.5429688 C109.625,73.9765647 109.798826,74.3300768 110.146484,74.6035156 C110.494142,74.8769545 111.050777,75.118163 111.816406,75.3271484 C112.582035,75.5361339 113.162107,75.7529286 113.556641,75.9775391 C113.951174,76.2021496 114.248046,76.4707016 114.447266,76.7832031 C114.646485,77.0957047 114.746094,77.4648416 114.746094,77.890625 C114.746094,78.5625034 114.477542,79.1015605 113.94043,79.5078125 C113.403318,79.9140645 112.695317,80.1171875 111.816406,80.1171875 C111.214841,80.1171875 110.663088,80.0097667 110.161133,79.7949219 C109.659177,79.5800771 109.278322,79.2792988 109.018555,78.8925781 C108.758788,78.5058574 108.628906,78.0625025 108.628906,77.5625 L109.349609,77.5625 C109.349609,78.1640655 109.574217,78.6386701 110.023438,78.9863281 C110.472658,79.3339861 111.070309,79.5078125 111.816406,79.5078125 C112.480472,79.5078125 113.01367,79.3613296 113.416016,79.0683594 C113.818361,78.7753892 114.019531,78.3867212 114.019531,77.9023438 Z M122.404297,76.4492188 L119.925781,76.4492188 L119.925781,80 L119.199219,80 L119.199219,71.46875 L121.970703,71.46875 C122.880864,71.46875 123.591794,71.6894509 124.103516,72.1308594 C124.615237,72.5722678 124.871094,73.1894492 124.871094,73.9824219 C124.871094,74.5292996 124.710939,75.0117167 124.390625,75.4296875 C124.070311,75.8476583 123.640628,76.1367179 123.101563,76.296875 L125.234375,79.9238281 L125.234375,80 L124.466797,80 L122.404297,76.4492188 Z M119.925781,75.8339844 L122.134766,75.8339844 C122.740237,75.8339844 123.226561,75.6621111 123.59375,75.3183594 C123.960939,74.9746077 124.144531,74.5292996 124.144531,73.9824219 C124.144531,73.3808564 123.953127,72.9140642 123.570312,72.5820312 C123.187498,72.2499983 122.650394,72.0839844 121.958984,72.0839844 L119.925781,72.0839844 L119.925781,75.8339844 Z M131.544922,75.9101562 L127.554688,75.9101562 L127.554688,79.390625 L132.142578,79.390625 L132.142578,80 L126.833984,80 L126.833984,71.46875 L132.113281,71.46875 L132.113281,72.0839844 L127.554688,72.0839844 L127.554688,75.3007812 L131.544922,75.3007812 L131.544922,75.9101562 Z M138.265625,77.609375 L134.392578,77.609375 L133.513672,80 L132.757812,80 L135.986328,71.46875 L136.671875,71.46875 L139.900391,80 L139.150391,80 L138.265625,77.609375 Z M134.615234,76.9941406 L138.037109,76.9941406 L136.326172,72.3476562 L134.615234,76.9941406 Z M141.880859,79.390625 L146.09375,79.390625 L146.09375,80 L141.154297,80 L141.154297,71.46875 L141.880859,71.46875 L141.880859,79.390625 Z M148.355469,80 L147.634766,80 L147.634766,71.46875 L148.355469,71.46875 L148.355469,80 Z M150.669922,80 L150.669922,71.46875 L153.054688,71.46875 C153.75391,71.46875 154.380857,71.6279281 154.935547,71.9462891 C155.490237,72.26465 155.92285,72.7207002 156.233398,73.3144531 C156.543947,73.9082061 156.699219,74.5839806 156.699219,75.3417969 L156.699219,76.1269531 C156.699219,76.8886757 156.544923,77.5644502 156.236328,78.1542969 C155.927733,78.7441436 155.493167,79.1992171 154.932617,79.5195312 C154.372068,79.8398454 153.728519,80 153.001953,80 L150.669922,80 Z M151.390625,72.0839844 L151.390625,79.390625 L153.007812,79.390625 C153.906254,79.390625 154.62695,79.0927764 155.169922,78.4970703 C155.712893,77.9013642 155.984375,77.0957082 155.984375,76.0800781 L155.984375,75.3300781 C155.984375,74.3496045 155.7168,73.5644561 155.181641,72.9746094 C154.646482,72.3847627 153.941411,72.0878906 153.066406,72.0839844 L151.390625,72.0839844 Z M163.009766,77.609375 L159.136719,77.609375 L158.257812,80 L157.501953,80 L160.730469,71.46875 L161.416016,71.46875 L164.644531,80 L163.894531,80 L163.009766,77.609375 Z M159.359375,76.9941406 L162.78125,76.9941406 L161.070312,72.3476562 L159.359375,76.9941406 Z M165.898438,80 L165.898438,71.46875 L168.283203,71.46875 C168.982425,71.46875 169.609372,71.6279281 170.164062,71.9462891 C170.718753,72.26465 171.151366,72.7207002 171.461914,73.3144531 C171.772462,73.9082061 171.927734,74.5839806 171.927734,75.3417969 L171.927734,76.1269531 C171.927734,76.8886757 171.773439,77.5644502 171.464844,78.1542969 C171.156248,78.7441436 170.721682,79.1992171 170.161133,79.5195312 C169.600583,79.8398454 168.957035,80 168.230469,80 L165.898438,80 Z M166.619141,72.0839844 L166.619141,79.390625 L168.236328,79.390625 C169.13477,79.390625 169.855466,79.0927764 170.398438,78.4970703 C170.941409,77.9013642 171.212891,77.0957082 171.212891,76.0800781 L171.212891,75.3300781 C171.212891,74.3496045 170.945315,73.5644561 170.410156,72.9746094 C169.874997,72.3847627 169.169926,72.0878906 168.294922,72.0839844 L166.619141,72.0839844 Z M178.466797,75.9101562 L174.476562,75.9101562 L174.476562,79.390625 L179.064453,79.390625 L179.064453,80 L173.755859,80 L173.755859,71.46875 L179.035156,71.46875 L179.035156,72.0839844 L174.476562,72.0839844 L174.476562,75.3007812 L178.466797,75.3007812 L178.466797,75.9101562 Z M185.410156,77.9023438 C185.410156,77.4296851 185.244142,77.0556654 184.912109,76.7802734 C184.580076,76.5048814 183.972661,76.2431653 183.089844,75.9951172 C182.207027,75.7470691 181.562502,75.476564 181.15625,75.1835938 C180.578122,74.7695292 180.289062,74.2265659 180.289062,73.5546875 C180.289062,72.9023405 180.557615,72.3720724 181.094727,71.9638672 C181.631839,71.555662 182.318355,71.3515625 183.154297,71.3515625 C183.720706,71.3515625 184.227537,71.4609364 184.674805,71.6796875 C185.122073,71.8984386 185.468749,72.203123 185.714844,72.59375 C185.960939,72.984377 186.083984,73.4199195 186.083984,73.9003906 L185.357422,73.9003906 C185.357422,73.3183565 185.158205,72.8505877 184.759766,72.4970703 C184.361326,72.1435529 183.826175,71.9667969 183.154297,71.9667969 C182.50195,71.9667969 181.982424,72.1123032 181.595703,72.4033203 C181.208982,72.6943374 181.015625,73.0742164 181.015625,73.5429688 C181.015625,73.9765647 181.189451,74.3300768 181.537109,74.6035156 C181.884767,74.8769545 182.441402,75.118163 183.207031,75.3271484 C183.97266,75.5361339 184.552732,75.7529286 184.947266,75.9775391 C185.341799,76.2021496 185.638671,76.4707016 185.837891,76.7832031 C186.03711,77.0957047 186.136719,77.4648416 186.136719,77.890625 C186.136719,78.5625034 185.868167,79.1015605 185.331055,79.5078125 C184.793943,79.9140645 184.085942,80.1171875 183.207031,80.1171875 C182.605466,80.1171875 182.053713,80.0097667 181.551758,79.7949219 C181.049802,79.5800771 180.668947,79.2792988 180.40918,78.8925781 C180.149413,78.5058574 180.019531,78.0625025 180.019531,77.5625 L180.740234,77.5625 C180.740234,78.1640655 180.964842,78.6386701 181.414062,78.9863281 C181.863283,79.3339861 182.460934,79.5078125 183.207031,79.5078125 C183.871097,79.5078125 184.404295,79.3613296 184.806641,79.0683594 C185.208986,78.7753892 185.410156,78.3867212 185.410156,77.9023438 Z" id="EXPLORANDO-NOVAS-REA" fill="#000000" opacity="0.9"></path>
            </g>
        </g>
    </g>
</svg>